<svg width="128" height="128" viewBox="0 0 128 128" fill="none" xmlns="http://www.w3.org/2000/svg">
<g clip-path="url(#clip0_617_228)">
<path d="M7 61C7 29.5198 32.5198 4 64 4C95.4802 4 121 29.5198 121 61V67C121 98.4802 95.4802 124 64 124C32.5198 124 7 98.4802 7 67V61Z" fill="url(#paint0_linear_617_228)"/>
<path d="M7 61C7 29.5198 32.5198 4 64 4C95.4802 4 121 29.5198 121 61V67C121 98.4802 95.4802 124 64 124C32.5198 124 7 98.4802 7 67V61Z" fill="black" fill-opacity="0.1"/>
<path d="M121 61C121 92.4802 95.4802 118 64 118C32.5198 118 7 92.4802 7 61C7 29.5198 32.5198 4 64 4C95.4802 4 121 29.5198 121 61Z" fill="#F0F0F0"/>
<g filter="url(#filter0_i_617_228)">
<path d="M64 15C89.4051 15 110 35.5949 110 61C110 86.4051 89.4051 107 64 107C38.5949 107 18 86.4051 18 61C18 35.5949 38.5949 15 64 15Z" stroke="#B0B0B0" stroke-width="12"/>
</g>
<path d="M64.4668 108.998C64.3114 109 64.1558 109 64 109C63.8442 109 63.6886 109 63.5332 108.998L63.5713 104.998C63.714 104.999 63.8569 105 64 105C64.1431 105 64.286 104.999 64.4287 104.998L64.4668 108.998ZM42.3682 99.3242L40.3984 102.807C40.1283 102.654 39.8597 102.498 39.5928 102.34L41.6299 98.8975C41.8744 99.0421 42.1206 99.1842 42.3682 99.3242ZM88.4072 102.34C88.1403 102.498 87.8717 102.654 87.6016 102.807L85.6318 99.3242C85.8794 99.1842 86.1256 99.0421 86.3701 98.8975L88.4072 102.34ZM26.1025 83.3701L22.6602 85.4072C22.5023 85.1403 22.3462 84.8717 22.1934 84.6016L25.6758 82.6318C25.8158 82.8794 25.9579 83.1256 26.1025 83.3701ZM105.807 84.6016C105.654 84.8717 105.498 85.1403 105.34 85.4072L101.897 83.3701C102.042 83.1256 102.184 82.8794 102.324 82.6318L105.807 84.6016ZM16 61C16 60.8442 16.0005 60.6886 16.002 60.5332L20.002 60.5713C20.0006 60.714 20 60.8569 20 61C20 61.1431 20.0006 61.286 20.002 61.4287L16.002 61.4668C16.0005 61.3114 16 61.1558 16 61ZM108 61C108 60.8569 107.999 60.714 107.998 60.5713L111.998 60.5332C112 60.6886 112 60.8442 112 61C112 61.1558 112 61.3114 111.998 61.4668L107.998 61.4287C107.999 61.286 108 61.1431 108 61ZM26.1025 38.6299C25.9579 38.8744 25.8158 39.1206 25.6758 39.3682L22.1934 37.3984C22.3462 37.1283 22.5023 36.8597 22.6602 36.5928L26.1025 38.6299ZM105.807 37.3984L102.324 39.3682C102.184 39.1206 102.042 38.8744 101.897 38.6299L105.34 36.5928C105.498 36.8597 105.654 37.1283 105.807 37.3984ZM42.3682 22.6758C42.1206 22.8158 41.8744 22.9579 41.6299 23.1025L39.5928 19.6602C39.8597 19.5023 40.1283 19.3462 40.3984 19.1934L42.3682 22.6758ZM88.4072 19.6602L86.3701 23.1025C86.1256 22.9579 85.8794 22.8158 85.6318 22.6758L87.6016 19.1934C87.8717 19.3462 88.1403 19.5023 88.4072 19.6602ZM64.4668 13.002L64.4287 17.002C64.286 17.0006 64.1431 17 64 17C63.8569 17 63.714 17.0006 63.5713 17.002L63.5332 13.002C63.6886 13.0005 63.8442 13 64 13C64.1558 13 64.3114 13.0005 64.4668 13.002Z" fill="#202020" fill-opacity="0.2"/>
<g filter="url(#filter1_i_617_228)">
<path d="M106.069 91.5648C111.706 83.8064 115.087 74.6403 115.84 65.0799C116.592 55.5195 114.686 45.9372 110.332 37.3925C105.979 28.8478 99.3467 21.6735 91.1699 16.6627C82.9931 11.652 73.59 9 64 9L64 61L106.069 91.5648Z" fill="#FF334B"/>
</g>
<path d="M96.3607 84.5114C100.697 78.5434 103.298 71.4925 103.877 64.1384C104.455 56.7842 102.989 49.4132 99.6403 42.8404C96.2912 36.2675 91.1898 30.7488 84.8999 26.8944C78.6101 23.04 71.3769 21 64 21L64 61L96.3607 84.5114Z" fill="#FFA8B1"/>
<path d="M95 86C95 82.6863 97.6863 80 101 80C104.314 80 107 82.6863 107 86V88C107 91.3137 104.314 94 101 94C97.6863 94 95 91.3137 95 88V86Z" fill="url(#paint1_linear_617_228)"/>
<path d="M107 86C107 89.3137 104.314 92 101 92C97.6863 92 95 89.3137 95 86C95 82.6863 97.6863 80 101 80C104.314 80 107 82.6863 107 86Z" fill="#FF7B88"/>
<rect x="63" y="7" width="2" height="17" rx="1" fill="url(#paint2_linear_617_228)"/>
<rect x="63" y="7" width="2" height="16" rx="1" fill="#FF7B88"/>
<g filter="url(#filter2_i_617_228)">
<path d="M36 51C36 46.5817 39.5817 43 44 43H84C88.4183 43 92 46.5817 92 51V71C92 75.4183 88.4183 79 84 79H44C39.5817 79 36 75.4183 36 71V51Z" fill="#192336"/>
</g>
<path fill-rule="evenodd" clip-rule="evenodd" d="M41 54C41 52.8954 41.8954 52 43 52H49C50.1046 52 51 52.8954 51 54V70C51 71.1046 50.1046 72 49 72H43C41.8954 72 41 71.1046 41 70V54ZM44 69H48V63.5H44V69ZM48 55H44V60.5H48V55Z" fill="#B8E0FF" fill-opacity="0.33"/>
<path fill-rule="evenodd" clip-rule="evenodd" d="M52 54C52 52.8954 52.8954 52 54 52H60C61.1046 52 62 52.8954 62 54V70C62 71.1046 61.1046 72 60 72H54C52.8954 72 52 71.1046 52 70V54ZM55 69H59V63.5H55V69ZM59 55H55V60.5H59V55Z" fill="#B8E0FF" fill-opacity="0.33"/>
<path fill-rule="evenodd" clip-rule="evenodd" d="M66 54C66 52.8954 66.8954 52 68 52H74C75.1046 52 76 52.8954 76 54V70C76 71.1046 75.1046 72 74 72H68C66.8954 72 66 71.1046 66 70V54ZM69 69H73V63.5H69V69ZM73 55H69V60.5H73V55Z" fill="#B8E0FF" fill-opacity="0.33"/>
<path fill-rule="evenodd" clip-rule="evenodd" d="M77 54C77 52.8954 77.8954 52 79 52H85C86.1046 52 87 52.8954 87 54V70C87 71.1046 86.1046 72 85 72H79C77.8954 72 77 71.1046 77 70V54ZM80 69H84V63.5H80V69ZM84 55H80V60.5H84V55Z" fill="#B8E0FF" fill-opacity="0.33"/>
<path d="M63 59C63 58.4477 63.4477 58 64 58C64.5523 58 65 58.4477 65 59V60C65 60.5523 64.5523 61 64 61C63.4477 61 63 60.5523 63 60V59Z" fill="#B8E0FF"/>
<path d="M63 64C63 63.4477 63.4477 63 64 63C64.5523 63 65 63.4477 65 64V65C65 65.5523 64.5523 66 64 66C63.4477 66 63 65.5523 63 65V64Z" fill="#B8E0FF"/>
<path d="M49.5 52C50.3284 52 51 52.6716 51 53.5V70.5C51 71.3284 50.3284 72 49.5 72C48.6716 72 48 71.3284 48 70.5V53.5C48 52.6716 48.6716 52 49.5 52Z" fill="#B8E0FF"/>
<path d="M52 54C52 52.8954 52.8954 52 54 52H60.5C61.3284 52 62 52.6716 62 53.5C62 54.3284 61.3284 55 60.5 55H55V60.5H60C61.1046 60.5 62 61.3954 62 62.5V70C62 71.1046 61.1046 72 60 72H53.5C52.6716 72 52 71.3284 52 70.5C52 69.6716 52.6716 69 53.5 69H59V63.5H54C52.8954 63.5 52 62.6046 52 61.5V54Z" fill="#B8E0FF"/>
<path fill-rule="evenodd" clip-rule="evenodd" d="M68 52H74C75.1046 52 76 52.8954 76 54V70C76 71.1046 75.1046 72 74 72H68C66.8954 72 66 71.1046 66 70V54C66 52.8954 66.8954 52 68 52ZM69 69H73V55H69V69Z" fill="#B8E0FF"/>
<path d="M63 59C63 58.4477 63.4477 58 64 58C64.5523 58 65 58.4477 65 59V60C65 60.5523 64.5523 61 64 61C63.4477 61 63 60.5523 63 60V59Z" fill="#B8E0FF"/>
<path d="M63 64C63 63.4477 63.4477 63 64 63C64.5523 63 65 63.4477 65 64V65C65 65.5523 64.5523 66 64 66C63.4477 66 63 65.5523 63 65V64Z" fill="#B8E0FF"/>
<path fill-rule="evenodd" clip-rule="evenodd" d="M79 52H85C86.1046 52 87 52.8954 87 54V70C87 71.1046 86.1046 72 85 72H79C77.8954 72 77 71.1046 77 70V54C77 52.8954 77.8954 52 79 52ZM80 69H84V55H80V69Z" fill="#B8E0FF"/>
</g>
<defs>
<filter id="filter0_i_617_228" x="12" y="9" width="104" height="104" filterUnits="userSpaceOnUse" color-interpolation-filters="sRGB">
<feFlood flood-opacity="0" result="BackgroundImageFix"/>
<feBlend mode="normal" in="SourceGraphic" in2="BackgroundImageFix" result="shape"/>
<feColorMatrix in="SourceAlpha" type="matrix" values="0 0 0 0 0 0 0 0 0 0 0 0 0 0 0 0 0 0 127 0" result="hardAlpha"/>
<feOffset dy="2"/>
<feComposite in2="hardAlpha" operator="arithmetic" k2="-1" k3="1"/>
<feColorMatrix type="matrix" values="0 0 0 0 0 0 0 0 0 0 0 0 0 0 0 0 0 0 0.25 0"/>
<feBlend mode="normal" in2="shape" result="effect1_innerShadow_617_228"/>
</filter>
<filter id="filter1_i_617_228" x="64" y="9" width="52" height="82.5648" filterUnits="userSpaceOnUse" color-interpolation-filters="sRGB">
<feFlood flood-opacity="0" result="BackgroundImageFix"/>
<feBlend mode="normal" in="SourceGraphic" in2="BackgroundImageFix" result="shape"/>
<feColorMatrix in="SourceAlpha" type="matrix" values="0 0 0 0 0 0 0 0 0 0 0 0 0 0 0 0 0 0 127 0" result="hardAlpha"/>
<feOffset dy="2"/>
<feComposite in2="hardAlpha" operator="arithmetic" k2="-1" k3="1"/>
<feColorMatrix type="matrix" values="0 0 0 0 0 0 0 0 0 0 0 0 0 0 0 0 0 0 0.25 0"/>
<feBlend mode="normal" in2="shape" result="effect1_innerShadow_617_228"/>
</filter>
<filter id="filter2_i_617_228" x="36" y="43" width="56" height="36" filterUnits="userSpaceOnUse" color-interpolation-filters="sRGB">
<feFlood flood-opacity="0" result="BackgroundImageFix"/>
<feBlend mode="normal" in="SourceGraphic" in2="BackgroundImageFix" result="shape"/>
<feColorMatrix in="SourceAlpha" type="matrix" values="0 0 0 0 0 0 0 0 0 0 0 0 0 0 0 0 0 0 127 0" result="hardAlpha"/>
<feOffset dy="2"/>
<feComposite in2="hardAlpha" operator="arithmetic" k2="-1" k3="1"/>
<feColorMatrix type="matrix" values="0 0 0 0 0.423529 0 0 0 0 0.423529 0 0 0 0 0.423529 0 0 0 1 0"/>
<feBlend mode="normal" in2="shape" result="effect1_innerShadow_617_228"/>
</filter>
<linearGradient id="paint0_linear_617_228" x1="6.99999" y1="124" x2="121" y2="124" gradientUnits="userSpaceOnUse">
<stop stop-color="#9A9A9A"/>
<stop offset="0.166667" stop-color="#B9B9B9"/>
<stop offset="0.333333" stop-color="#C9C9C9"/>
<stop offset="0.5" stop-color="#EDEDED"/>
<stop offset="0.666667" stop-color="#C0C0C0"/>
<stop offset="0.833333" stop-color="#BEBEBE"/>
<stop offset="1" stop-color="#969696"/>
</linearGradient>
<linearGradient id="paint1_linear_617_228" x1="95" y1="94" x2="107" y2="94" gradientUnits="userSpaceOnUse">
<stop stop-color="#E55D7A"/>
<stop offset="0.2" stop-color="#FF6A8A"/>
<stop offset="0.4" stop-color="#8F243B"/>
<stop offset="0.6" stop-color="#8F243B"/>
<stop offset="0.8" stop-color="#FF6A8A"/>
<stop offset="1" stop-color="#E55D7A"/>
</linearGradient>
<linearGradient id="paint2_linear_617_228" x1="63" y1="24" x2="65" y2="24" gradientUnits="userSpaceOnUse">
<stop stop-color="#E55D7A"/>
<stop offset="0.2" stop-color="#FF6A8A"/>
<stop offset="0.4" stop-color="#8F243B"/>
<stop offset="0.6" stop-color="#8F243B"/>
<stop offset="0.8" stop-color="#FF6A8A"/>
<stop offset="1" stop-color="#E55D7A"/>
</linearGradient>
<clipPath id="clip0_617_228">
<rect width="128" height="128" fill="white"/>
</clipPath>
</defs>
</svg>
