<svg xmlns="http://www.w3.org/2000/svg" width="128" height="128" fill="none" viewBox="0 0 128 128"><g clip-path="url(#a)"><rect width="114" height="120" x="7" y="4" fill="url(#b)" rx="57"/><rect width="114" height="120" x="7" y="4" fill="#000" fill-opacity=".1" rx="57"/><path stroke="#fff" stroke-linejoin="round" d="m76.165 16.887-13.977 52.16"/><path stroke="#fff" stroke-linejoin="round" stroke-width="3" d="M98.325 31.757 53.736 71.905"/><path stroke="#fff" stroke-linejoin="round" stroke-width="6" d="m36.689 39.065 35.67 32.119"/><rect width="12" height="13" x="58" y="57" fill="url(#c)" rx="6"/><rect width="12" height="12" x="58" y="57" fill="#f0f0f0" rx="6"/><rect width="88" height="88" x="20" y="19" stroke="#fff" stroke-dasharray="1 7" stroke-opacity=".33" stroke-width="6" rx="44"/><path stroke="#fff" stroke-linecap="square" stroke-linejoin="round" stroke-width="4" d="M64 103v8M64 15v8M104 63h8M16 63h8"/><path stroke="#fff" stroke-linecap="square" stroke-linejoin="round" stroke-opacity=".66" stroke-width="2" d="m84 97.641 4 6.928M40 21.43l4 6.929M98.641 43l6.928-4M22.43 87l6.929-4"/><path stroke="#f9babc" stroke-linecap="square" stroke-linejoin="round" stroke-width="2" d="m98.641 83 6.928 4M22.43 39l6.929 4M84 28.359l4-6.928M40 104.569l4-6.928"/><circle cx="64" cy="61" r="57" fill="#f0f0f0"/><g filter="url(#d)"><circle cx="64" cy="61" r="46" stroke="#b0b0b0" stroke-width="12"/></g><path fill="#202020" fill-opacity=".2" d="M64.467 110.998Q64.233 111 64 111t-.467-.002l.038-4a61 61 0 0 0 .858 0zm-22.099-9.674-1.97 3.483q-.405-.23-.805-.467l2.037-3.443q.366.217.738.427m46.04 3.016q-.401.237-.806.467l-1.97-3.483q.371-.21.738-.427zM26.102 85.37l-3.443 2.037a48 48 0 0 1-.467-.805l3.483-1.97q.21.371.427.738m79.704 1.232q-.23.405-.467.805l-3.443-2.037q.217-.366.427-.738zM16 63q0-.233.002-.467l4 .038a44 44 0 0 0 0 .858l-4 .038zm92 0-.002-.429 4-.038q.002.233.002.467 0 .233-.002.467l-4-.038zM26.102 40.63q-.216.366-.426.738l-3.483-1.97q.23-.405.467-.805zm79.705-1.232-3.483 1.97q-.21-.371-.427-.738l3.443-2.037q.237.4.467.805M42.368 24.676q-.371.21-.738.427l-2.037-3.443q.4-.237.805-.467zm46.04-3.016-2.038 3.442q-.366-.216-.738-.426l1.97-3.483q.405.23.805.467m-23.941-6.658-.038 4a44 44 0 0 0-.858 0l-.038-4a48 48 0 0 1 .934 0"/><mask id="e" width="52" height="83" x="64" y="9" maskUnits="userSpaceOnUse" style="mask-type:alpha"><path fill="#ffa8a8" d="M106.069 91.565a52 52 0 0 0 4.263-54.172A51.99 51.99 0 0 0 64 9v52z"/></mask><g filter="url(#f)" mask="url(#e)"><circle cx="64" cy="61" r="46" stroke="#ff334b" stroke-width="12"/></g><path fill="#ffa8b1" d="M96.36 84.511A40 40 0 0 0 64 21v40z"/><rect width="12" height="14" x="95" y="80" fill="url(#g)" rx="6"/><circle cx="101" cy="86" r="6" fill="#ff7b88"/><rect width="2" height="17" x="63" y="7" fill="url(#h)" rx="1"/><rect width="2" height="16" x="63" y="7" fill="#ff7b88" rx="1"/><g filter="url(#i)"><rect width="48" height="32" x="40" y="45" fill="#1f1936" rx="4"/></g><path fill="#483b81" d="M52.5 55a.5.5 0 0 1 .5.5v1a.5.5 0 0 1-.5.5H48v3h4.5a.5.5 0 0 1 .5.5v1a.5.5 0 0 1-.5.5H48v3h3.5a.5.5 0 0 1 .5.5v1a.5.5 0 0 1-.5.5h-5a.5.5 0 0 1-.5-.5v-11a.5.5 0 0 1 .5-.5zM55.5 55a.5.5 0 0 1 .5.5v11a.5.5 0 0 1-.5.5h-1a.5.5 0 0 1-.5-.5v-11a.5.5 0 0 1 .5-.5zM61.5 55a.5.5 0 0 1 .5.5v11a.5.5 0 0 1-.5.5h-1a.5.5 0 0 1-.5-.5v-11a.5.5 0 0 1 .5-.5zM73.5 60a.5.5 0 0 1 .5.5v1a.5.5 0 0 1-.5.5h-7a.5.5 0 0 1-.5-.5v-1a.5.5 0 0 1 .5-.5zM82.5 60a.5.5 0 0 1 .5.5v1a.5.5 0 0 1-.5.5h-7a.5.5 0 0 1-.5-.5v-1a.5.5 0 0 1 .5-.5z"/><path fill="#80ff80" d="M52.5 55a.5.5 0 0 1 .5.5v11a.5.5 0 0 1-.5.5h-1a.5.5 0 0 1-.5-.5v-11a.5.5 0 0 1 .5-.5zM61.5 55a.5.5 0 0 1 .5.5v1a.5.5 0 0 1-.5.5H56v3h5.5a.5.5 0 0 1 .5.5v6a.5.5 0 0 1-.5.5h-7a.5.5 0 0 1-.5-.5v-1a.5.5 0 0 1 .5-.5H60v-3h-5.5a.5.5 0 0 1-.5-.5v-6a.5.5 0 0 1 .5-.5z"/><path fill="#80ff80" fill-rule="evenodd" d="M73.5 55a.5.5 0 0 1 .5.5v11a.5.5 0 0 1-.5.5h-7a.5.5 0 0 1-.5-.5v-11a.5.5 0 0 1 .5-.5zM68 65h4v-8h-4zM82.5 55a.5.5 0 0 1 .5.5v11a.5.5 0 0 1-.5.5h-7a.5.5 0 0 1-.5-.5v-11a.5.5 0 0 1 .5-.5zM77 65h4v-8h-4z" clip-rule="evenodd"/><path fill="#80ff80" d="M64.5 62a.5.5 0 0 1 .5.5v1a.5.5 0 0 1-.5.5h-1a.5.5 0 0 1-.5-.5v-1a.5.5 0 0 1 .5-.5zM64.5 58a.5.5 0 0 1 .5.5v1a.5.5 0 0 1-.5.5h-1a.5.5 0 0 1-.5-.5v-1a.5.5 0 0 1 .5-.5z"/></g><defs><linearGradient id="b" x1="7" x2="121" y1="124" y2="124" gradientUnits="userSpaceOnUse"><stop stop-color="#9a9a9a"/><stop offset=".167" stop-color="#b9b9b9"/><stop offset=".333" stop-color="#c9c9c9"/><stop offset=".5" stop-color="#ededed"/><stop offset=".667" stop-color="silver"/><stop offset=".833" stop-color="#bebebe"/><stop offset="1" stop-color="#969696"/></linearGradient><linearGradient id="c" x1="58" x2="70" y1="70" y2="70" gradientUnits="userSpaceOnUse"><stop stop-color="#9a9a9a"/><stop offset=".167" stop-color="#b9b9b9"/><stop offset=".333" stop-color="#c9c9c9"/><stop offset=".5" stop-color="#ededed"/><stop offset=".667" stop-color="silver"/><stop offset=".833" stop-color="#bebebe"/><stop offset="1" stop-color="#969696"/></linearGradient><linearGradient id="g" x1="95" x2="107" y1="94" y2="94" gradientUnits="userSpaceOnUse"><stop stop-color="#e55d7a"/><stop offset=".2" stop-color="#ff6a8a"/><stop offset=".4" stop-color="#8f243b"/><stop offset=".6" stop-color="#8f243b"/><stop offset=".8" stop-color="#ff6a8a"/><stop offset="1" stop-color="#e55d7a"/></linearGradient><linearGradient id="h" x1="63" x2="65" y1="24" y2="24" gradientUnits="userSpaceOnUse"><stop stop-color="#e55d7a"/><stop offset=".2" stop-color="#ff6a8a"/><stop offset=".4" stop-color="#8f243b"/><stop offset=".6" stop-color="#8f243b"/><stop offset=".8" stop-color="#ff6a8a"/><stop offset="1" stop-color="#e55d7a"/></linearGradient><filter id="d" width="104" height="104" x="12" y="9" color-interpolation-filters="sRGB" filterUnits="userSpaceOnUse"><feFlood flood-opacity="0" result="BackgroundImageFix"/><feBlend in="SourceGraphic" in2="BackgroundImageFix" result="shape"/><feColorMatrix in="SourceAlpha" result="hardAlpha" values="0 0 0 0 0 0 0 0 0 0 0 0 0 0 0 0 0 0 127 0"/><feOffset dy="2"/><feComposite in2="hardAlpha" k2="-1" k3="1" operator="arithmetic"/><feColorMatrix values="0 0 0 0 0 0 0 0 0 0 0 0 0 0 0 0 0 0 0.25 0"/><feBlend in2="shape" result="effect1_innerShadow_43_10"/></filter><filter id="f" width="104" height="104" x="12" y="9" color-interpolation-filters="sRGB" filterUnits="userSpaceOnUse"><feFlood flood-opacity="0" result="BackgroundImageFix"/><feBlend in="SourceGraphic" in2="BackgroundImageFix" result="shape"/><feColorMatrix in="SourceAlpha" result="hardAlpha" values="0 0 0 0 0 0 0 0 0 0 0 0 0 0 0 0 0 0 127 0"/><feOffset dy="2"/><feComposite in2="hardAlpha" k2="-1" k3="1" operator="arithmetic"/><feColorMatrix values="0 0 0 0 0 0 0 0 0 0 0 0 0 0 0 0 0 0 0.25 0"/><feBlend in2="shape" result="effect1_innerShadow_43_10"/></filter><filter id="i" width="48" height="32" x="40" y="45" color-interpolation-filters="sRGB" filterUnits="userSpaceOnUse"><feFlood flood-opacity="0" result="BackgroundImageFix"/><feBlend in="SourceGraphic" in2="BackgroundImageFix" result="shape"/><feColorMatrix in="SourceAlpha" result="hardAlpha" values="0 0 0 0 0 0 0 0 0 0 0 0 0 0 0 0 0 0 127 0"/><feOffset dy="2"/><feComposite in2="hardAlpha" k2="-1" k3="1" operator="arithmetic"/><feColorMatrix values="0 0 0 0 0.423529 0 0 0 0 0.423529 0 0 0 0 0.423529 0 0 0 1 0"/><feBlend in2="shape" result="effect1_innerShadow_43_10"/></filter><clipPath id="a"><path fill="#fff" d="M0 0h128v128H0z"/></clipPath></defs></svg>